<svg xmlns="http://www.w3.org/2000/svg" viewBox="0 0 512 512">
  <defs>
    <linearGradient id="bg" x1="0" y1="0" x2="1" y2="1">
      <stop offset="0%" stop-color="#090414"/>
      <stop offset="55%" stop-color="#1d0820"/>
      <stop offset="100%" stop-color="#451015"/>
    </linearGradient>
    <linearGradient id="core" x1="0" y1="0" x2="0" y2="1">
      <stop offset="0%" stop-color="#ff5a6f"/>
      <stop offset="100%" stop-color="#b30028"/>
    </linearGradient>
  </defs>
  <rect width="512" height="512" rx="112" fill="url(#bg)"/>
  <path d="M78 376L148 256L214 318L256 166L304 272L362 210L434 376Z" fill="#120716" opacity="0.85"/>
  <g transform="translate(256 250)">
    <path d="M-132 18L-86 -64L0 -104L86 -64L132 18L108 112L0 154L-108 112Z" fill="#56111f" stroke="#25040c" stroke-width="14"/>
    <path d="M-88 18L-52 -42L0 -68L52 -42L88 18L68 76L0 102L-68 76Z" fill="#9d1d32" stroke="#3a0712" stroke-width="10"/>
    <circle r="42" fill="url(#core)"/>
    <circle r="18" fill="#ffafbd"/>
    <path d="M-132 8L-206 -26L-170 38L-118 52Z" fill="#70223f" stroke="#2c0814" stroke-width="10"/>
    <path d="M132 8L206 -26L170 38L118 52Z" fill="#70223f" stroke="#2c0814" stroke-width="10"/>
    <path d="M-58 -78L-26 -142L18 -92Z" fill="#bf7cff" stroke="#391156" stroke-width="10"/>
    <path d="M58 -78L26 -142L-18 -92Z" fill="#bf7cff" stroke="#391156" stroke-width="10"/>
  </g>
  <circle cx="390" cy="118" r="14" fill="#ffe7c1" opacity="0.7"/>
</svg>
